<mxfile host="app.diagrams.net" modified="2023-05-19T19:00:27.977Z" agent="Mozilla/5.0 (Windows NT 10.0; Win64; x64) AppleWebKit/537.36 (KHTML, like Gecko) Chrome/112.0.0.0 Safari/537.36" version="21.3.2" etag="WhTzXOIGLQGxSdtjV80m" type="github">
  <diagram name="PÃ¡gina-1" id="zVjZiOk3-7HrcYIgmMeo">
    <mxGraphModel>
      <root>
        <mxCell id="0" />
        <mxCell id="1" parent="0" />
      </root>
    </mxGraphModel>
  </diagram>
</mxfile>
